<mxfile host="Electron" agent="Mozilla/5.0 (Windows NT 10.0; Win64; x64) AppleWebKit/537.36 (KHTML, like Gecko) draw.io/24.7.8 Chrome/128.0.6613.36 Electron/32.0.1 Safari/537.36" version="24.7.8" pages="5">
  <diagram name="pemesanan makanan" id="CkbLeCHALclp_3PPHxIY">
    <mxGraphModel dx="1399" dy="550" grid="1" gridSize="10" guides="1" tooltips="1" connect="1" arrows="1" fold="1" page="1" pageScale="1" pageWidth="850" pageHeight="1100" math="0" shadow="0">
      <root>
        <mxCell id="0" />
        <mxCell id="1" parent="0" />
        <mxCell id="htsnyswXLWh0J3llnp7j-3" value="" style="edgeStyle=orthogonalEdgeStyle;rounded=0;orthogonalLoop=1;jettySize=auto;html=1;fillColor=#6666FF;" edge="1" parent="1" source="htsnyswXLWh0J3llnp7j-1" target="htsnyswXLWh0J3llnp7j-2">
          <mxGeometry relative="1" as="geometry" />
        </mxCell>
        <mxCell id="htsnyswXLWh0J3llnp7j-1" value="Start" style="strokeWidth=2;html=1;shape=mxgraph.flowchart.start_1;whiteSpace=wrap;fillColor=#6666FF;" vertex="1" parent="1">
          <mxGeometry x="50" y="60" width="100" height="60" as="geometry" />
        </mxCell>
        <mxCell id="5s0gb9AoTBUHv-penZFS-6" value="" style="edgeStyle=orthogonalEdgeStyle;rounded=0;orthogonalLoop=1;jettySize=auto;html=1;fillColor=#6666FF;" edge="1" parent="1" source="htsnyswXLWh0J3llnp7j-2" target="5s0gb9AoTBUHv-penZFS-5">
          <mxGeometry relative="1" as="geometry" />
        </mxCell>
        <mxCell id="htsnyswXLWh0J3llnp7j-2" value="Pelanggan singgah ke rumah makan" style="whiteSpace=wrap;html=1;strokeWidth=2;fillColor=#6666FF;" vertex="1" parent="1">
          <mxGeometry x="210" y="60" width="120" height="60" as="geometry" />
        </mxCell>
        <mxCell id="5s0gb9AoTBUHv-penZFS-8" value="" style="edgeStyle=orthogonalEdgeStyle;rounded=0;orthogonalLoop=1;jettySize=auto;html=1;fillColor=#6666FF;" edge="1" parent="1" source="htsnyswXLWh0J3llnp7j-6" target="htsnyswXLWh0J3llnp7j-8">
          <mxGeometry relative="1" as="geometry" />
        </mxCell>
        <mxCell id="5s0gb9AoTBUHv-penZFS-9" value="" style="edgeStyle=orthogonalEdgeStyle;rounded=0;orthogonalLoop=1;jettySize=auto;html=1;fillColor=#6666FF;" edge="1" parent="1" source="htsnyswXLWh0J3llnp7j-6" target="htsnyswXLWh0J3llnp7j-18">
          <mxGeometry relative="1" as="geometry" />
        </mxCell>
        <mxCell id="htsnyswXLWh0J3llnp7j-6" value="Apakah sesuai selera?" style="rhombus;whiteSpace=wrap;html=1;strokeWidth=2;fillColor=#6666FF;" vertex="1" parent="1">
          <mxGeometry x="530" y="25" width="120" height="130" as="geometry" />
        </mxCell>
        <mxCell id="5s0gb9AoTBUHv-penZFS-16" style="edgeStyle=orthogonalEdgeStyle;rounded=0;orthogonalLoop=1;jettySize=auto;html=1;entryX=0.75;entryY=0;entryDx=0;entryDy=0;fillColor=#6666FF;" edge="1" parent="1" source="htsnyswXLWh0J3llnp7j-8" target="htsnyswXLWh0J3llnp7j-33">
          <mxGeometry relative="1" as="geometry">
            <mxPoint x="670" y="310" as="targetPoint" />
            <Array as="points">
              <mxPoint x="760" y="270" />
              <mxPoint x="670" y="270" />
            </Array>
          </mxGeometry>
        </mxCell>
        <mxCell id="htsnyswXLWh0J3llnp7j-8" value="Tidak memesan" style="whiteSpace=wrap;html=1;strokeWidth=2;fillColor=#6666FF;" vertex="1" parent="1">
          <mxGeometry x="700" y="60" width="120" height="60" as="geometry" />
        </mxCell>
        <mxCell id="htsnyswXLWh0J3llnp7j-23" value="" style="edgeStyle=orthogonalEdgeStyle;rounded=0;orthogonalLoop=1;jettySize=auto;html=1;fillColor=#6666FF;" edge="1" parent="1" source="htsnyswXLWh0J3llnp7j-12" target="htsnyswXLWh0J3llnp7j-22">
          <mxGeometry relative="1" as="geometry" />
        </mxCell>
        <mxCell id="5s0gb9AoTBUHv-penZFS-10" style="edgeStyle=orthogonalEdgeStyle;rounded=0;orthogonalLoop=1;jettySize=auto;html=1;fillColor=#6666FF;" edge="1" parent="1" source="htsnyswXLWh0J3llnp7j-12" target="5s0gb9AoTBUHv-penZFS-5">
          <mxGeometry relative="1" as="geometry" />
        </mxCell>
        <mxCell id="htsnyswXLWh0J3llnp7j-12" value="Pelayan&amp;nbsp;&lt;div&gt;mengecek stock makanan&lt;/div&gt;" style="rhombus;whiteSpace=wrap;html=1;strokeWidth=2;fillColor=#6666FF;" vertex="1" parent="1">
          <mxGeometry x="360" y="170" width="130" height="150" as="geometry" />
        </mxCell>
        <mxCell id="5s0gb9AoTBUHv-penZFS-12" value="" style="edgeStyle=orthogonalEdgeStyle;rounded=0;orthogonalLoop=1;jettySize=auto;html=1;fillColor=#6666FF;" edge="1" parent="1" source="htsnyswXLWh0J3llnp7j-18" target="htsnyswXLWh0J3llnp7j-12">
          <mxGeometry relative="1" as="geometry" />
        </mxCell>
        <mxCell id="htsnyswXLWh0J3llnp7j-18" value="Memesan" style="whiteSpace=wrap;html=1;strokeWidth=2;fillColor=#6666FF;" vertex="1" parent="1">
          <mxGeometry x="530" y="215" width="120" height="60" as="geometry" />
        </mxCell>
        <mxCell id="5s0gb9AoTBUHv-penZFS-13" value="" style="edgeStyle=orthogonalEdgeStyle;rounded=0;orthogonalLoop=1;jettySize=auto;html=1;fillColor=#6666FF;" edge="1" parent="1" source="htsnyswXLWh0J3llnp7j-22" target="htsnyswXLWh0J3llnp7j-29">
          <mxGeometry relative="1" as="geometry" />
        </mxCell>
        <mxCell id="htsnyswXLWh0J3llnp7j-22" value="di proses" style="whiteSpace=wrap;html=1;strokeWidth=2;fillColor=#6666FF;" vertex="1" parent="1">
          <mxGeometry x="200" y="215" width="120" height="60" as="geometry" />
        </mxCell>
        <mxCell id="htsnyswXLWh0J3llnp7j-30" value="" style="edgeStyle=orthogonalEdgeStyle;rounded=0;orthogonalLoop=1;jettySize=auto;html=1;fillColor=#6666FF;" edge="1" parent="1" source="htsnyswXLWh0J3llnp7j-27" target="htsnyswXLWh0J3llnp7j-29">
          <mxGeometry relative="1" as="geometry" />
        </mxCell>
        <mxCell id="5s0gb9AoTBUHv-penZFS-15" value="" style="edgeStyle=orthogonalEdgeStyle;rounded=0;orthogonalLoop=1;jettySize=auto;html=1;fillColor=#6666FF;" edge="1" parent="1" source="htsnyswXLWh0J3llnp7j-27" target="htsnyswXLWh0J3llnp7j-31">
          <mxGeometry relative="1" as="geometry" />
        </mxCell>
        <mxCell id="htsnyswXLWh0J3llnp7j-27" value="Menerima pesanan" style="whiteSpace=wrap;html=1;strokeWidth=2;fillColor=#6666FF;" vertex="1" parent="1">
          <mxGeometry x="40" y="320" width="120" height="60" as="geometry" />
        </mxCell>
        <mxCell id="htsnyswXLWh0J3llnp7j-29" value="menuju kasi untuk membayar" style="whiteSpace=wrap;html=1;strokeWidth=2;fillColor=#6666FF;" vertex="1" parent="1">
          <mxGeometry x="40" y="215" width="120" height="60" as="geometry" />
        </mxCell>
        <mxCell id="htsnyswXLWh0J3llnp7j-34" value="" style="edgeStyle=orthogonalEdgeStyle;rounded=0;orthogonalLoop=1;jettySize=auto;html=1;fillColor=#6666FF;" edge="1" parent="1" source="htsnyswXLWh0J3llnp7j-31" target="htsnyswXLWh0J3llnp7j-33">
          <mxGeometry relative="1" as="geometry" />
        </mxCell>
        <mxCell id="htsnyswXLWh0J3llnp7j-31" value="Bukti pembayaran" style="whiteSpace=wrap;html=1;strokeWidth=2;fillColor=#6666FF;" vertex="1" parent="1">
          <mxGeometry x="245" y="320" width="120" height="60" as="geometry" />
        </mxCell>
        <mxCell id="htsnyswXLWh0J3llnp7j-36" style="edgeStyle=orthogonalEdgeStyle;rounded=0;orthogonalLoop=1;jettySize=auto;html=1;fillColor=#6666FF;" edge="1" parent="1" source="htsnyswXLWh0J3llnp7j-33" target="htsnyswXLWh0J3llnp7j-35">
          <mxGeometry relative="1" as="geometry" />
        </mxCell>
        <mxCell id="htsnyswXLWh0J3llnp7j-33" value="Meninggalkan rumah makan" style="whiteSpace=wrap;html=1;strokeWidth=2;fillColor=#6666FF;" vertex="1" parent="1">
          <mxGeometry x="580" y="320" width="120" height="60" as="geometry" />
        </mxCell>
        <mxCell id="htsnyswXLWh0J3llnp7j-35" value="End" style="strokeWidth=2;html=1;shape=mxgraph.flowchart.start_1;whiteSpace=wrap;fillColor=#6666FF;" vertex="1" parent="1">
          <mxGeometry x="740" y="320" width="100" height="60" as="geometry" />
        </mxCell>
        <mxCell id="htsnyswXLWh0J3llnp7j-39" value="True" style="text;html=1;align=center;verticalAlign=middle;resizable=0;points=[];autosize=1;strokeColor=none;fillColor=none;" vertex="1" parent="1">
          <mxGeometry x="330" y="210" width="50" height="30" as="geometry" />
        </mxCell>
        <mxCell id="htsnyswXLWh0J3llnp7j-40" value="False" style="text;html=1;align=center;verticalAlign=middle;resizable=0;points=[];autosize=1;strokeColor=none;fillColor=none;" vertex="1" parent="1">
          <mxGeometry x="640" y="50" width="50" height="30" as="geometry" />
        </mxCell>
        <mxCell id="htsnyswXLWh0J3llnp7j-41" value="True" style="text;html=1;align=center;verticalAlign=middle;resizable=0;points=[];autosize=1;strokeColor=none;fillColor=#6666FF;" vertex="1" parent="1">
          <mxGeometry x="320" y="720" width="50" height="30" as="geometry" />
        </mxCell>
        <mxCell id="htsnyswXLWh0J3llnp7j-42" value="false" style="text;html=1;align=center;verticalAlign=middle;resizable=0;points=[];autosize=1;strokeColor=none;fillColor=none;" vertex="1" parent="1">
          <mxGeometry x="425" y="155" width="50" height="30" as="geometry" />
        </mxCell>
        <mxCell id="5s0gb9AoTBUHv-penZFS-7" value="" style="edgeStyle=orthogonalEdgeStyle;rounded=0;orthogonalLoop=1;jettySize=auto;html=1;fillColor=#6666FF;" edge="1" parent="1" source="5s0gb9AoTBUHv-penZFS-5" target="htsnyswXLWh0J3llnp7j-6">
          <mxGeometry relative="1" as="geometry" />
        </mxCell>
        <mxCell id="5s0gb9AoTBUHv-penZFS-5" value="memilih menu makanan" style="shape=parallelogram;perimeter=parallelogramPerimeter;whiteSpace=wrap;html=1;fixedSize=1;strokeWidth=2;fillColor=#6666FF;" vertex="1" parent="1">
          <mxGeometry x="365" y="60" width="120" height="60" as="geometry" />
        </mxCell>
        <mxCell id="5s0gb9AoTBUHv-penZFS-17" value="True" style="text;html=1;align=center;verticalAlign=middle;resizable=0;points=[];autosize=1;strokeColor=none;fillColor=none;" vertex="1" parent="1">
          <mxGeometry x="590" y="155" width="50" height="30" as="geometry" />
        </mxCell>
      </root>
    </mxGraphModel>
  </diagram>
  <diagram name="beli laptop" id="Hm82fvYakCjpdmn8j6nd">
    <mxGraphModel dx="1152" dy="453" grid="1" gridSize="10" guides="1" tooltips="1" connect="1" arrows="1" fold="1" page="1" pageScale="1" pageWidth="850" pageHeight="1100" math="0" shadow="0">
      <root>
        <mxCell id="cfcYn18Edp9DdR7p8Wk8-0" />
        <mxCell id="cfcYn18Edp9DdR7p8Wk8-1" parent="cfcYn18Edp9DdR7p8Wk8-0" />
        <mxCell id="cfcYn18Edp9DdR7p8Wk8-2" value="" style="edgeStyle=orthogonalEdgeStyle;rounded=0;orthogonalLoop=1;jettySize=auto;html=1;fillColor=#6666FF;" edge="1" parent="cfcYn18Edp9DdR7p8Wk8-1" source="cfcYn18Edp9DdR7p8Wk8-3" target="cfcYn18Edp9DdR7p8Wk8-5">
          <mxGeometry relative="1" as="geometry" />
        </mxCell>
        <mxCell id="cfcYn18Edp9DdR7p8Wk8-3" value="Start" style="strokeWidth=2;html=1;shape=mxgraph.flowchart.start_1;whiteSpace=wrap;fillColor=#6666FF;" vertex="1" parent="cfcYn18Edp9DdR7p8Wk8-1">
          <mxGeometry x="20" y="60" width="100" height="60" as="geometry" />
        </mxCell>
        <mxCell id="cfcYn18Edp9DdR7p8Wk8-4" value="" style="edgeStyle=orthogonalEdgeStyle;rounded=0;orthogonalLoop=1;jettySize=auto;html=1;fillColor=#6666FF;" edge="1" parent="cfcYn18Edp9DdR7p8Wk8-1" source="cfcYn18Edp9DdR7p8Wk8-5" target="cfcYn18Edp9DdR7p8Wk8-32">
          <mxGeometry relative="1" as="geometry" />
        </mxCell>
        <mxCell id="cfcYn18Edp9DdR7p8Wk8-5" value="&lt;div&gt;hargaLaptop,&lt;span style=&quot;background-color: initial;&quot;&gt;kredit,&lt;/span&gt;&lt;/div&gt;&lt;div&gt;hargaKredit,sisaPinjaman,&lt;/div&gt;&lt;div&gt;uangMuka,cicilan&lt;/div&gt;" style="whiteSpace=wrap;html=1;strokeWidth=2;fillColor=#6666FF;" vertex="1" parent="cfcYn18Edp9DdR7p8Wk8-1">
          <mxGeometry x="150" y="60" width="150" height="60" as="geometry" />
        </mxCell>
        <mxCell id="b50e6whjWkJeKd7gH1mF-1" value="" style="edgeStyle=orthogonalEdgeStyle;rounded=0;orthogonalLoop=1;jettySize=auto;html=1;fillColor=#6666FF;" edge="1" parent="cfcYn18Edp9DdR7p8Wk8-1" source="cfcYn18Edp9DdR7p8Wk8-10" target="cfcYn18Edp9DdR7p8Wk8-15">
          <mxGeometry relative="1" as="geometry" />
        </mxCell>
        <mxCell id="cfcYn18Edp9DdR7p8Wk8-10" value="&lt;div&gt;kredit =&amp;nbsp;&lt;/div&gt;&lt;div&gt;0.20 * hargaLaptop&lt;/div&gt;" style="whiteSpace=wrap;html=1;strokeWidth=2;fillColor=#6666FF;" vertex="1" parent="cfcYn18Edp9DdR7p8Wk8-1">
          <mxGeometry x="480" y="60" width="120" height="60" as="geometry" />
        </mxCell>
        <mxCell id="b50e6whjWkJeKd7gH1mF-3" value="" style="edgeStyle=orthogonalEdgeStyle;rounded=0;orthogonalLoop=1;jettySize=auto;html=1;fillColor=#6666FF;" edge="1" parent="cfcYn18Edp9DdR7p8Wk8-1" source="cfcYn18Edp9DdR7p8Wk8-15" target="b50e6whjWkJeKd7gH1mF-2">
          <mxGeometry relative="1" as="geometry" />
        </mxCell>
        <mxCell id="cfcYn18Edp9DdR7p8Wk8-15" value="hargaKredit =&amp;nbsp;&lt;div&gt;kredit + hargaLaptop&lt;/div&gt;" style="whiteSpace=wrap;html=1;strokeWidth=2;fillColor=#6666FF;" vertex="1" parent="cfcYn18Edp9DdR7p8Wk8-1">
          <mxGeometry x="630" y="60" width="120" height="60" as="geometry" />
        </mxCell>
        <mxCell id="cfcYn18Edp9DdR7p8Wk8-26" value="End" style="strokeWidth=2;html=1;shape=mxgraph.flowchart.start_1;whiteSpace=wrap;fillColor=#6666FF;" vertex="1" parent="cfcYn18Edp9DdR7p8Wk8-1">
          <mxGeometry x="20" y="160" width="100" height="60" as="geometry" />
        </mxCell>
        <mxCell id="cfcYn18Edp9DdR7p8Wk8-29" value="True" style="text;html=1;align=center;verticalAlign=middle;resizable=0;points=[];autosize=1;strokeColor=none;fillColor=#6666FF;" vertex="1" parent="cfcYn18Edp9DdR7p8Wk8-1">
          <mxGeometry x="320" y="720" width="50" height="30" as="geometry" />
        </mxCell>
        <mxCell id="b50e6whjWkJeKd7gH1mF-0" value="" style="edgeStyle=orthogonalEdgeStyle;rounded=0;orthogonalLoop=1;jettySize=auto;html=1;fillColor=#6666FF;" edge="1" parent="cfcYn18Edp9DdR7p8Wk8-1" source="cfcYn18Edp9DdR7p8Wk8-32" target="cfcYn18Edp9DdR7p8Wk8-10">
          <mxGeometry relative="1" as="geometry" />
        </mxCell>
        <mxCell id="cfcYn18Edp9DdR7p8Wk8-32" value="hargaLaptop" style="shape=parallelogram;perimeter=parallelogramPerimeter;whiteSpace=wrap;html=1;fixedSize=1;strokeWidth=2;fillColor=#6666FF;" vertex="1" parent="cfcYn18Edp9DdR7p8Wk8-1">
          <mxGeometry x="330" y="60" width="120" height="60" as="geometry" />
        </mxCell>
        <mxCell id="b50e6whjWkJeKd7gH1mF-5" value="" style="edgeStyle=orthogonalEdgeStyle;rounded=0;orthogonalLoop=1;jettySize=auto;html=1;fillColor=#6666FF;" edge="1" parent="cfcYn18Edp9DdR7p8Wk8-1" source="b50e6whjWkJeKd7gH1mF-2" target="b50e6whjWkJeKd7gH1mF-4">
          <mxGeometry relative="1" as="geometry" />
        </mxCell>
        <mxCell id="b50e6whjWkJeKd7gH1mF-2" value="uangMuka =&amp;nbsp;&lt;div&gt;0.30 * hargaKredit&lt;/div&gt;" style="whiteSpace=wrap;html=1;strokeWidth=2;fillColor=#6666FF;" vertex="1" parent="cfcYn18Edp9DdR7p8Wk8-1">
          <mxGeometry x="630" y="160" width="120" height="60" as="geometry" />
        </mxCell>
        <mxCell id="b50e6whjWkJeKd7gH1mF-8" value="" style="edgeStyle=orthogonalEdgeStyle;rounded=0;orthogonalLoop=1;jettySize=auto;html=1;fillColor=#6666FF;" edge="1" parent="cfcYn18Edp9DdR7p8Wk8-1" source="b50e6whjWkJeKd7gH1mF-4" target="b50e6whjWkJeKd7gH1mF-7">
          <mxGeometry relative="1" as="geometry" />
        </mxCell>
        <mxCell id="b50e6whjWkJeKd7gH1mF-4" value="sisaPinjaman =&lt;div&gt;hargaKredit - uangMuka&lt;/div&gt;" style="whiteSpace=wrap;html=1;strokeWidth=2;fillColor=#6666FF;" vertex="1" parent="cfcYn18Edp9DdR7p8Wk8-1">
          <mxGeometry x="450" y="160" width="150" height="60" as="geometry" />
        </mxCell>
        <mxCell id="b50e6whjWkJeKd7gH1mF-11" value="" style="edgeStyle=orthogonalEdgeStyle;rounded=0;orthogonalLoop=1;jettySize=auto;html=1;fillColor=#6666FF;" edge="1" parent="cfcYn18Edp9DdR7p8Wk8-1" source="b50e6whjWkJeKd7gH1mF-7" target="b50e6whjWkJeKd7gH1mF-10">
          <mxGeometry relative="1" as="geometry" />
        </mxCell>
        <mxCell id="b50e6whjWkJeKd7gH1mF-7" value="cicilan = sisaPinjaman / 12" style="whiteSpace=wrap;html=1;strokeWidth=2;fillColor=#6666FF;" vertex="1" parent="cfcYn18Edp9DdR7p8Wk8-1">
          <mxGeometry x="300" y="160" width="120" height="60" as="geometry" />
        </mxCell>
        <mxCell id="b50e6whjWkJeKd7gH1mF-12" value="" style="edgeStyle=orthogonalEdgeStyle;rounded=0;orthogonalLoop=1;jettySize=auto;html=1;fillColor=#6666FF;" edge="1" parent="cfcYn18Edp9DdR7p8Wk8-1" source="b50e6whjWkJeKd7gH1mF-10" target="cfcYn18Edp9DdR7p8Wk8-26">
          <mxGeometry relative="1" as="geometry" />
        </mxCell>
        <mxCell id="b50e6whjWkJeKd7gH1mF-10" value="uangMuka,&amp;nbsp;&lt;div&gt;cicilan&lt;/div&gt;" style="shape=parallelogram;perimeter=parallelogramPerimeter;whiteSpace=wrap;html=1;fixedSize=1;strokeWidth=2;fillColor=#6666FF;" vertex="1" parent="cfcYn18Edp9DdR7p8Wk8-1">
          <mxGeometry x="150" y="160" width="120" height="60" as="geometry" />
        </mxCell>
      </root>
    </mxGraphModel>
  </diagram>
  <diagram name="umur" id="2sgt1J4r972oDTUW0W0C">
    <mxGraphModel dx="1152" dy="453" grid="1" gridSize="10" guides="1" tooltips="1" connect="1" arrows="1" fold="1" page="1" pageScale="1" pageWidth="850" pageHeight="1100" math="0" shadow="0">
      <root>
        <mxCell id="o_4d3gy71auAjFBU5haP-0" />
        <mxCell id="o_4d3gy71auAjFBU5haP-1" parent="o_4d3gy71auAjFBU5haP-0" />
        <mxCell id="swIXTksv4rheHcoyy7-F-1" value="" style="edgeStyle=orthogonalEdgeStyle;rounded=0;orthogonalLoop=1;jettySize=auto;html=1;fillColor=#6666FF;" edge="1" parent="o_4d3gy71auAjFBU5haP-1" source="o_4d3gy71auAjFBU5haP-3" target="swIXTksv4rheHcoyy7-F-0">
          <mxGeometry relative="1" as="geometry" />
        </mxCell>
        <mxCell id="o_4d3gy71auAjFBU5haP-3" value="Start" style="strokeWidth=2;html=1;shape=mxgraph.flowchart.start_1;whiteSpace=wrap;fillColor=#6666FF;" vertex="1" parent="o_4d3gy71auAjFBU5haP-1">
          <mxGeometry x="260" y="110" width="100" height="60" as="geometry" />
        </mxCell>
        <mxCell id="o_4d3gy71auAjFBU5haP-6" value="" style="edgeStyle=orthogonalEdgeStyle;rounded=0;orthogonalLoop=1;jettySize=auto;html=1;fillColor=#6666FF;" edge="1" parent="o_4d3gy71auAjFBU5haP-1" source="o_4d3gy71auAjFBU5haP-7" target="o_4d3gy71auAjFBU5haP-9">
          <mxGeometry relative="1" as="geometry" />
        </mxCell>
        <mxCell id="o_4d3gy71auAjFBU5haP-7" value="a = 8 + b;" style="whiteSpace=wrap;html=1;strokeWidth=2;fillColor=#6666FF;" vertex="1" parent="o_4d3gy71auAjFBU5haP-1">
          <mxGeometry x="90" y="350" width="120" height="60" as="geometry" />
        </mxCell>
        <mxCell id="o_4d3gy71auAjFBU5haP-8" value="" style="edgeStyle=orthogonalEdgeStyle;rounded=0;orthogonalLoop=1;jettySize=auto;html=1;fillColor=#6666FF;" edge="1" parent="o_4d3gy71auAjFBU5haP-1" source="o_4d3gy71auAjFBU5haP-9" target="o_4d3gy71auAjFBU5haP-15">
          <mxGeometry relative="1" as="geometry" />
        </mxCell>
        <mxCell id="o_4d3gy71auAjFBU5haP-9" value="c = 5 + b;" style="whiteSpace=wrap;html=1;strokeWidth=2;fillColor=#6666FF;" vertex="1" parent="o_4d3gy71auAjFBU5haP-1">
          <mxGeometry x="250" y="350" width="120" height="60" as="geometry" />
        </mxCell>
        <mxCell id="o_4d3gy71auAjFBU5haP-10" value="End" style="strokeWidth=2;html=1;shape=mxgraph.flowchart.start_1;whiteSpace=wrap;fillColor=#6666FF;" vertex="1" parent="o_4d3gy71auAjFBU5haP-1">
          <mxGeometry x="640" y="220" width="100" height="60" as="geometry" />
        </mxCell>
        <mxCell id="o_4d3gy71auAjFBU5haP-11" value="True" style="text;html=1;align=center;verticalAlign=middle;resizable=0;points=[];autosize=1;strokeColor=none;fillColor=#6666FF;" vertex="1" parent="o_4d3gy71auAjFBU5haP-1">
          <mxGeometry x="400" y="710" width="50" height="30" as="geometry" />
        </mxCell>
        <mxCell id="o_4d3gy71auAjFBU5haP-12" value="" style="edgeStyle=orthogonalEdgeStyle;rounded=0;orthogonalLoop=1;jettySize=auto;html=1;fillColor=#6666FF;" edge="1" parent="o_4d3gy71auAjFBU5haP-1" source="o_4d3gy71auAjFBU5haP-13" target="o_4d3gy71auAjFBU5haP-7">
          <mxGeometry relative="1" as="geometry" />
        </mxCell>
        <mxCell id="o_4d3gy71auAjFBU5haP-13" value="input umur budi" style="shape=parallelogram;perimeter=parallelogramPerimeter;whiteSpace=wrap;html=1;fixedSize=1;strokeWidth=2;fillColor=#6666FF;" vertex="1" parent="o_4d3gy71auAjFBU5haP-1">
          <mxGeometry x="90" y="230" width="120" height="60" as="geometry" />
        </mxCell>
        <mxCell id="swIXTksv4rheHcoyy7-F-5" value="" style="edgeStyle=orthogonalEdgeStyle;rounded=0;orthogonalLoop=1;jettySize=auto;html=1;fillColor=#6666FF;" edge="1" parent="o_4d3gy71auAjFBU5haP-1" source="o_4d3gy71auAjFBU5haP-15" target="swIXTksv4rheHcoyy7-F-4">
          <mxGeometry relative="1" as="geometry" />
        </mxCell>
        <mxCell id="swIXTksv4rheHcoyy7-F-14" style="edgeStyle=orthogonalEdgeStyle;rounded=0;orthogonalLoop=1;jettySize=auto;html=1;fillColor=#6666FF;" edge="1" parent="o_4d3gy71auAjFBU5haP-1" source="o_4d3gy71auAjFBU5haP-15" target="swIXTksv4rheHcoyy7-F-12">
          <mxGeometry relative="1" as="geometry">
            <Array as="points">
              <mxPoint x="410" y="290" />
              <mxPoint x="410" y="200" />
            </Array>
          </mxGeometry>
        </mxCell>
        <mxCell id="swIXTksv4rheHcoyy7-F-15" style="edgeStyle=orthogonalEdgeStyle;rounded=0;orthogonalLoop=1;jettySize=auto;html=1;entryX=0;entryY=0.5;entryDx=0;entryDy=0;fillColor=#6666FF;" edge="1" parent="o_4d3gy71auAjFBU5haP-1" source="o_4d3gy71auAjFBU5haP-15" target="swIXTksv4rheHcoyy7-F-8">
          <mxGeometry relative="1" as="geometry">
            <Array as="points">
              <mxPoint x="410" y="290" />
              <mxPoint x="410" y="110" />
            </Array>
          </mxGeometry>
        </mxCell>
        <mxCell id="swIXTksv4rheHcoyy7-F-16" style="edgeStyle=orthogonalEdgeStyle;rounded=0;orthogonalLoop=1;jettySize=auto;html=1;entryX=0;entryY=0.5;entryDx=0;entryDy=0;fillColor=#6666FF;" edge="1" parent="o_4d3gy71auAjFBU5haP-1" source="o_4d3gy71auAjFBU5haP-15" target="swIXTksv4rheHcoyy7-F-10">
          <mxGeometry relative="1" as="geometry">
            <Array as="points">
              <mxPoint x="410" y="290" />
              <mxPoint x="410" y="380" />
            </Array>
          </mxGeometry>
        </mxCell>
        <mxCell id="o_4d3gy71auAjFBU5haP-15" value="&amp;nbsp;d = (a+b)/2;" style="whiteSpace=wrap;html=1;strokeWidth=2;fillColor=#6666FF;" vertex="1" parent="o_4d3gy71auAjFBU5haP-1">
          <mxGeometry x="250" y="260" width="120" height="60" as="geometry" />
        </mxCell>
        <mxCell id="swIXTksv4rheHcoyy7-F-3" value="" style="edgeStyle=orthogonalEdgeStyle;rounded=0;orthogonalLoop=1;jettySize=auto;html=1;fillColor=#6666FF;" edge="1" parent="o_4d3gy71auAjFBU5haP-1" source="swIXTksv4rheHcoyy7-F-0" target="o_4d3gy71auAjFBU5haP-13">
          <mxGeometry relative="1" as="geometry" />
        </mxCell>
        <mxCell id="swIXTksv4rheHcoyy7-F-0" value="a,b,c,d" style="whiteSpace=wrap;html=1;strokeWidth=2;fillColor=#6666FF;" vertex="1" parent="o_4d3gy71auAjFBU5haP-1">
          <mxGeometry x="90" y="110" width="120" height="60" as="geometry" />
        </mxCell>
        <mxCell id="swIXTksv4rheHcoyy7-F-4" value="&quot;umur andi&lt;div&gt;&lt;span style=&quot;background-color: initial;&quot;&gt;yaitu =&quot; +c&lt;/span&gt;&lt;/div&gt;" style="shape=parallelogram;perimeter=parallelogramPerimeter;whiteSpace=wrap;html=1;fixedSize=1;strokeWidth=2;fillColor=#6666FF;" vertex="1" parent="o_4d3gy71auAjFBU5haP-1">
          <mxGeometry x="440" y="260" width="120" height="60" as="geometry" />
        </mxCell>
        <mxCell id="swIXTksv4rheHcoyy7-F-8" value="&quot;umur andi&lt;div&gt;&lt;span style=&quot;background-color: initial;&quot;&gt;yaitu =&quot; +a&lt;/span&gt;&lt;/div&gt;" style="shape=parallelogram;perimeter=parallelogramPerimeter;whiteSpace=wrap;html=1;fixedSize=1;strokeWidth=2;fillColor=#6666FF;" vertex="1" parent="o_4d3gy71auAjFBU5haP-1">
          <mxGeometry x="440" y="80" width="120" height="60" as="geometry" />
        </mxCell>
        <mxCell id="swIXTksv4rheHcoyy7-F-10" value="&quot;umur andi&lt;div&gt;&lt;span style=&quot;background-color: initial;&quot;&gt;yaitu =&quot; +d&lt;/span&gt;&lt;/div&gt;" style="shape=parallelogram;perimeter=parallelogramPerimeter;whiteSpace=wrap;html=1;fixedSize=1;strokeWidth=2;fillColor=#6666FF;" vertex="1" parent="o_4d3gy71auAjFBU5haP-1">
          <mxGeometry x="440" y="350" width="120" height="60" as="geometry" />
        </mxCell>
        <mxCell id="swIXTksv4rheHcoyy7-F-12" value="&quot;umur andi&lt;div&gt;&lt;span style=&quot;background-color: initial;&quot;&gt;yaitu =&quot; +b&lt;/span&gt;&lt;/div&gt;" style="shape=parallelogram;perimeter=parallelogramPerimeter;whiteSpace=wrap;html=1;fixedSize=1;strokeWidth=2;fillColor=#6666FF;" vertex="1" parent="o_4d3gy71auAjFBU5haP-1">
          <mxGeometry x="445" y="170" width="120" height="60" as="geometry" />
        </mxCell>
        <mxCell id="swIXTksv4rheHcoyy7-F-19" style="edgeStyle=orthogonalEdgeStyle;rounded=0;orthogonalLoop=1;jettySize=auto;html=1;entryX=0;entryY=0.5;entryDx=0;entryDy=0;entryPerimeter=0;fillColor=#6666FF;" edge="1" parent="o_4d3gy71auAjFBU5haP-1" source="swIXTksv4rheHcoyy7-F-4" target="o_4d3gy71auAjFBU5haP-10">
          <mxGeometry relative="1" as="geometry">
            <Array as="points">
              <mxPoint x="600" y="290" />
              <mxPoint x="600" y="250" />
            </Array>
          </mxGeometry>
        </mxCell>
        <mxCell id="swIXTksv4rheHcoyy7-F-20" style="edgeStyle=orthogonalEdgeStyle;rounded=0;orthogonalLoop=1;jettySize=auto;html=1;entryX=0;entryY=0.5;entryDx=0;entryDy=0;entryPerimeter=0;fillColor=#6666FF;" edge="1" parent="o_4d3gy71auAjFBU5haP-1" source="swIXTksv4rheHcoyy7-F-12" target="o_4d3gy71auAjFBU5haP-10">
          <mxGeometry relative="1" as="geometry">
            <Array as="points">
              <mxPoint x="600" y="200" />
              <mxPoint x="600" y="250" />
            </Array>
          </mxGeometry>
        </mxCell>
        <mxCell id="swIXTksv4rheHcoyy7-F-22" style="edgeStyle=orthogonalEdgeStyle;rounded=0;orthogonalLoop=1;jettySize=auto;html=1;entryX=0;entryY=0.5;entryDx=0;entryDy=0;entryPerimeter=0;fillColor=#6666FF;" edge="1" parent="o_4d3gy71auAjFBU5haP-1" source="swIXTksv4rheHcoyy7-F-10" target="o_4d3gy71auAjFBU5haP-10">
          <mxGeometry relative="1" as="geometry">
            <Array as="points">
              <mxPoint x="600" y="380" />
              <mxPoint x="600" y="250" />
            </Array>
          </mxGeometry>
        </mxCell>
        <mxCell id="swIXTksv4rheHcoyy7-F-23" style="edgeStyle=orthogonalEdgeStyle;rounded=0;orthogonalLoop=1;jettySize=auto;html=1;entryX=0;entryY=0.5;entryDx=0;entryDy=0;entryPerimeter=0;fillColor=#6666FF;" edge="1" parent="o_4d3gy71auAjFBU5haP-1" source="swIXTksv4rheHcoyy7-F-8" target="o_4d3gy71auAjFBU5haP-10">
          <mxGeometry relative="1" as="geometry" />
        </mxCell>
      </root>
    </mxGraphModel>
  </diagram>
  <diagram name="tanam pohon" id="qSS-WmRXi8BWayb82ku2">
    <mxGraphModel dx="979" dy="385" grid="1" gridSize="10" guides="1" tooltips="1" connect="1" arrows="1" fold="1" page="1" pageScale="1" pageWidth="850" pageHeight="1100" math="0" shadow="0">
      <root>
        <mxCell id="wDYNrOhzahem7_j0Db8b-0" />
        <mxCell id="wDYNrOhzahem7_j0Db8b-1" parent="wDYNrOhzahem7_j0Db8b-0" />
        <mxCell id="wDYNrOhzahem7_j0Db8b-2" value="" style="edgeStyle=orthogonalEdgeStyle;rounded=0;orthogonalLoop=1;jettySize=auto;html=1;fillColor=#6666FF;" edge="1" parent="wDYNrOhzahem7_j0Db8b-1" source="wDYNrOhzahem7_j0Db8b-3" target="wDYNrOhzahem7_j0Db8b-5">
          <mxGeometry relative="1" as="geometry" />
        </mxCell>
        <mxCell id="wDYNrOhzahem7_j0Db8b-3" value="Start" style="strokeWidth=2;html=1;shape=mxgraph.flowchart.start_1;whiteSpace=wrap;fillColor=#6666FF;" vertex="1" parent="wDYNrOhzahem7_j0Db8b-1">
          <mxGeometry x="20" y="60" width="100" height="60" as="geometry" />
        </mxCell>
        <mxCell id="wDYNrOhzahem7_j0Db8b-4" value="" style="edgeStyle=orthogonalEdgeStyle;rounded=0;orthogonalLoop=1;jettySize=auto;html=1;fillColor=#6666FF;" edge="1" parent="wDYNrOhzahem7_j0Db8b-1" source="wDYNrOhzahem7_j0Db8b-5" target="wDYNrOhzahem7_j0Db8b-13">
          <mxGeometry relative="1" as="geometry" />
        </mxCell>
        <mxCell id="wDYNrOhzahem7_j0Db8b-5" value="panjang,lebar,&lt;div&gt;banyakPohon,jarak,&lt;/div&gt;&lt;div&gt;pohonPanjang,pohonLebar&lt;br&gt;&lt;/div&gt;" style="whiteSpace=wrap;html=1;strokeWidth=2;fillColor=#6666FF;" vertex="1" parent="wDYNrOhzahem7_j0Db8b-1">
          <mxGeometry x="140" y="60" width="150" height="60" as="geometry" />
        </mxCell>
        <mxCell id="wDYNrOhzahem7_j0Db8b-10" value="End" style="strokeWidth=2;html=1;shape=mxgraph.flowchart.start_1;whiteSpace=wrap;fillColor=#6666FF;" vertex="1" parent="wDYNrOhzahem7_j0Db8b-1">
          <mxGeometry x="150" y="160" width="100" height="60" as="geometry" />
        </mxCell>
        <mxCell id="wDYNrOhzahem7_j0Db8b-11" value="True" style="text;html=1;align=center;verticalAlign=middle;resizable=0;points=[];autosize=1;strokeColor=none;fillColor=#6666FF;" vertex="1" parent="wDYNrOhzahem7_j0Db8b-1">
          <mxGeometry x="320" y="720" width="50" height="30" as="geometry" />
        </mxCell>
        <mxCell id="_aMhF6ilD9vTuohyQcPw-1" value="" style="edgeStyle=orthogonalEdgeStyle;rounded=0;orthogonalLoop=1;jettySize=auto;html=1;fillColor=#6666FF;" edge="1" parent="wDYNrOhzahem7_j0Db8b-1" source="wDYNrOhzahem7_j0Db8b-13" target="_aMhF6ilD9vTuohyQcPw-0">
          <mxGeometry relative="1" as="geometry" />
        </mxCell>
        <mxCell id="wDYNrOhzahem7_j0Db8b-13" value="panjang = 500" style="shape=parallelogram;perimeter=parallelogramPerimeter;whiteSpace=wrap;html=1;fixedSize=1;strokeWidth=2;fillColor=#6666FF;" vertex="1" parent="wDYNrOhzahem7_j0Db8b-1">
          <mxGeometry x="310" y="60" width="120" height="60" as="geometry" />
        </mxCell>
        <mxCell id="_aMhF6ilD9vTuohyQcPw-9" value="" style="edgeStyle=orthogonalEdgeStyle;rounded=0;orthogonalLoop=1;jettySize=auto;html=1;fillColor=#6666FF;" edge="1" parent="wDYNrOhzahem7_j0Db8b-1" source="wDYNrOhzahem7_j0Db8b-15" target="_aMhF6ilD9vTuohyQcPw-4">
          <mxGeometry relative="1" as="geometry" />
        </mxCell>
        <mxCell id="wDYNrOhzahem7_j0Db8b-15" value="pohonPanjang = panjang / jarak" style="whiteSpace=wrap;html=1;strokeWidth=2;fillColor=#6666FF;" vertex="1" parent="wDYNrOhzahem7_j0Db8b-1">
          <mxGeometry x="720" y="60" width="120" height="60" as="geometry" />
        </mxCell>
        <mxCell id="_aMhF6ilD9vTuohyQcPw-7" value="" style="edgeStyle=orthogonalEdgeStyle;rounded=0;orthogonalLoop=1;jettySize=auto;html=1;fillColor=#6666FF;" edge="1" parent="wDYNrOhzahem7_j0Db8b-1" source="wDYNrOhzahem7_j0Db8b-19" target="wDYNrOhzahem7_j0Db8b-21">
          <mxGeometry relative="1" as="geometry" />
        </mxCell>
        <mxCell id="wDYNrOhzahem7_j0Db8b-19" value="banyakPohon =&amp;nbsp;&lt;div&gt;2&amp;nbsp; * (pohonPanjang+pohonLebar)&lt;/div&gt;" style="whiteSpace=wrap;html=1;strokeWidth=2;fillColor=#6666FF;" vertex="1" parent="wDYNrOhzahem7_j0Db8b-1">
          <mxGeometry x="470" y="160" width="190" height="60" as="geometry" />
        </mxCell>
        <mxCell id="_aMhF6ilD9vTuohyQcPw-10" value="" style="edgeStyle=orthogonalEdgeStyle;rounded=0;orthogonalLoop=1;jettySize=auto;html=1;fillColor=#6666FF;" edge="1" parent="wDYNrOhzahem7_j0Db8b-1" source="wDYNrOhzahem7_j0Db8b-21" target="wDYNrOhzahem7_j0Db8b-10">
          <mxGeometry relative="1" as="geometry" />
        </mxCell>
        <mxCell id="wDYNrOhzahem7_j0Db8b-21" value="&quot;Total Pohon = &quot;&lt;div&gt;+banyakPohon&lt;/div&gt;" style="shape=parallelogram;perimeter=parallelogramPerimeter;whiteSpace=wrap;html=1;fixedSize=1;strokeWidth=2;fillColor=#6666FF;" vertex="1" parent="wDYNrOhzahem7_j0Db8b-1">
          <mxGeometry x="300" y="160" width="140" height="60" as="geometry" />
        </mxCell>
        <mxCell id="_aMhF6ilD9vTuohyQcPw-3" value="" style="edgeStyle=orthogonalEdgeStyle;rounded=0;orthogonalLoop=1;jettySize=auto;html=1;fillColor=#6666FF;" edge="1" parent="wDYNrOhzahem7_j0Db8b-1" source="_aMhF6ilD9vTuohyQcPw-0" target="_aMhF6ilD9vTuohyQcPw-2">
          <mxGeometry relative="1" as="geometry" />
        </mxCell>
        <mxCell id="_aMhF6ilD9vTuohyQcPw-0" value="&lt;div&gt;lebar = 300&lt;/div&gt;" style="shape=parallelogram;perimeter=parallelogramPerimeter;whiteSpace=wrap;html=1;fixedSize=1;strokeWidth=2;fillColor=#6666FF;" vertex="1" parent="wDYNrOhzahem7_j0Db8b-1">
          <mxGeometry x="440" y="60" width="120" height="60" as="geometry" />
        </mxCell>
        <mxCell id="_aMhF6ilD9vTuohyQcPw-8" value="" style="edgeStyle=orthogonalEdgeStyle;rounded=0;orthogonalLoop=1;jettySize=auto;html=1;fillColor=#6666FF;" edge="1" parent="wDYNrOhzahem7_j0Db8b-1" source="_aMhF6ilD9vTuohyQcPw-2" target="wDYNrOhzahem7_j0Db8b-15">
          <mxGeometry relative="1" as="geometry" />
        </mxCell>
        <mxCell id="_aMhF6ilD9vTuohyQcPw-2" value="jarak = 5" style="shape=parallelogram;perimeter=parallelogramPerimeter;whiteSpace=wrap;html=1;fixedSize=1;strokeWidth=2;fillColor=#6666FF;" vertex="1" parent="wDYNrOhzahem7_j0Db8b-1">
          <mxGeometry x="570" y="60" width="120" height="60" as="geometry" />
        </mxCell>
        <mxCell id="_aMhF6ilD9vTuohyQcPw-6" value="" style="edgeStyle=orthogonalEdgeStyle;rounded=0;orthogonalLoop=1;jettySize=auto;html=1;fillColor=#6666FF;" edge="1" parent="wDYNrOhzahem7_j0Db8b-1" source="_aMhF6ilD9vTuohyQcPw-4" target="wDYNrOhzahem7_j0Db8b-19">
          <mxGeometry relative="1" as="geometry" />
        </mxCell>
        <mxCell id="_aMhF6ilD9vTuohyQcPw-4" value="pohonLebar =&amp;nbsp;&lt;div&gt;lebar / jarak&lt;/div&gt;" style="whiteSpace=wrap;html=1;strokeWidth=2;fillColor=#6666FF;" vertex="1" parent="wDYNrOhzahem7_j0Db8b-1">
          <mxGeometry x="720" y="160" width="120" height="60" as="geometry" />
        </mxCell>
      </root>
    </mxGraphModel>
  </diagram>
  <diagram id="SMj_nQG2hn4TltpkaVTh" name="Page-5">
    <mxGraphModel dx="1180" dy="592" grid="1" gridSize="10" guides="1" tooltips="1" connect="1" arrows="1" fold="1" page="1" pageScale="1" pageWidth="850" pageHeight="1100" math="0" shadow="0">
      <root>
        <mxCell id="0" />
        <mxCell id="1" parent="0" />
        <mxCell id="cXDRhL9zQuSr1UYdaiF8-54" value="" style="edgeStyle=orthogonalEdgeStyle;rounded=0;orthogonalLoop=1;jettySize=auto;html=1;" edge="1" parent="1" source="cXDRhL9zQuSr1UYdaiF8-1" target="cXDRhL9zQuSr1UYdaiF8-2">
          <mxGeometry relative="1" as="geometry" />
        </mxCell>
        <mxCell id="cXDRhL9zQuSr1UYdaiF8-1" value="Start" style="strokeWidth=2;html=1;shape=mxgraph.flowchart.start_1;whiteSpace=wrap;fillColor=#6666FF;" vertex="1" parent="1">
          <mxGeometry x="100" y="400" width="100" height="60" as="geometry" />
        </mxCell>
        <mxCell id="cXDRhL9zQuSr1UYdaiF8-51" value="" style="edgeStyle=orthogonalEdgeStyle;rounded=0;orthogonalLoop=1;jettySize=auto;html=1;" edge="1" parent="1" source="cXDRhL9zQuSr1UYdaiF8-2" target="cXDRhL9zQuSr1UYdaiF8-31">
          <mxGeometry relative="1" as="geometry" />
        </mxCell>
        <mxCell id="cXDRhL9zQuSr1UYdaiF8-2" value="num" style="shape=parallelogram;perimeter=parallelogramPerimeter;whiteSpace=wrap;html=1;fixedSize=1;strokeWidth=2;fillColor=#6666FF;" vertex="1" parent="1">
          <mxGeometry x="90" y="270" width="120" height="60" as="geometry" />
        </mxCell>
        <mxCell id="cXDRhL9zQuSr1UYdaiF8-36" value="" style="edgeStyle=orthogonalEdgeStyle;rounded=0;orthogonalLoop=1;jettySize=auto;html=1;" edge="1" parent="1" source="cXDRhL9zQuSr1UYdaiF8-31" target="cXDRhL9zQuSr1UYdaiF8-35">
          <mxGeometry relative="1" as="geometry" />
        </mxCell>
        <mxCell id="cXDRhL9zQuSr1UYdaiF8-38" value="" style="edgeStyle=orthogonalEdgeStyle;rounded=0;orthogonalLoop=1;jettySize=auto;html=1;" edge="1" parent="1" source="cXDRhL9zQuSr1UYdaiF8-31" target="cXDRhL9zQuSr1UYdaiF8-37">
          <mxGeometry relative="1" as="geometry" />
        </mxCell>
        <mxCell id="cXDRhL9zQuSr1UYdaiF8-31" value="num &amp;lt;= 1" style="rhombus;whiteSpace=wrap;html=1;fillColor=#6666FF;strokeWidth=2;" vertex="1" parent="1">
          <mxGeometry x="270" y="260" width="80" height="80" as="geometry" />
        </mxCell>
        <mxCell id="cXDRhL9zQuSr1UYdaiF8-35" value="Bukan bilangan&lt;div&gt;prima&lt;/div&gt;" style="shape=parallelogram;perimeter=parallelogramPerimeter;whiteSpace=wrap;html=1;fixedSize=1;fillColor=#6666FF;strokeWidth=2;" vertex="1" parent="1">
          <mxGeometry x="390" y="270" width="120" height="60" as="geometry" />
        </mxCell>
        <mxCell id="cXDRhL9zQuSr1UYdaiF8-40" value="" style="edgeStyle=orthogonalEdgeStyle;rounded=0;orthogonalLoop=1;jettySize=auto;html=1;" edge="1" parent="1" source="cXDRhL9zQuSr1UYdaiF8-37" target="cXDRhL9zQuSr1UYdaiF8-39">
          <mxGeometry relative="1" as="geometry" />
        </mxCell>
        <mxCell id="cXDRhL9zQuSr1UYdaiF8-37" value="i = 2" style="whiteSpace=wrap;html=1;fillColor=#6666FF;strokeWidth=2;" vertex="1" parent="1">
          <mxGeometry x="250" y="390" width="120" height="60" as="geometry" />
        </mxCell>
        <mxCell id="cXDRhL9zQuSr1UYdaiF8-42" value="" style="edgeStyle=orthogonalEdgeStyle;rounded=0;orthogonalLoop=1;jettySize=auto;html=1;" edge="1" parent="1" source="cXDRhL9zQuSr1UYdaiF8-39" target="cXDRhL9zQuSr1UYdaiF8-41">
          <mxGeometry relative="1" as="geometry" />
        </mxCell>
        <mxCell id="cXDRhL9zQuSr1UYdaiF8-48" value="" style="edgeStyle=orthogonalEdgeStyle;rounded=0;orthogonalLoop=1;jettySize=auto;html=1;" edge="1" parent="1" source="cXDRhL9zQuSr1UYdaiF8-39" target="cXDRhL9zQuSr1UYdaiF8-47">
          <mxGeometry relative="1" as="geometry" />
        </mxCell>
        <mxCell id="cXDRhL9zQuSr1UYdaiF8-39" value="i &amp;lt; num&amp;nbsp;" style="rhombus;whiteSpace=wrap;html=1;fillColor=#6666FF;strokeWidth=2;" vertex="1" parent="1">
          <mxGeometry x="265" y="500" width="90" height="90" as="geometry" />
        </mxCell>
        <mxCell id="cXDRhL9zQuSr1UYdaiF8-44" value="" style="edgeStyle=orthogonalEdgeStyle;rounded=0;orthogonalLoop=1;jettySize=auto;html=1;" edge="1" parent="1" source="cXDRhL9zQuSr1UYdaiF8-41" target="cXDRhL9zQuSr1UYdaiF8-43">
          <mxGeometry relative="1" as="geometry" />
        </mxCell>
        <mxCell id="cXDRhL9zQuSr1UYdaiF8-46" value="" style="edgeStyle=orthogonalEdgeStyle;rounded=0;orthogonalLoop=1;jettySize=auto;html=1;" edge="1" parent="1" source="cXDRhL9zQuSr1UYdaiF8-41" target="cXDRhL9zQuSr1UYdaiF8-45">
          <mxGeometry relative="1" as="geometry" />
        </mxCell>
        <mxCell id="cXDRhL9zQuSr1UYdaiF8-41" value="num % i == 0" style="rhombus;whiteSpace=wrap;html=1;fillColor=#6666FF;strokeWidth=2;" vertex="1" parent="1">
          <mxGeometry x="260" y="620" width="100" height="90" as="geometry" />
        </mxCell>
        <mxCell id="cXDRhL9zQuSr1UYdaiF8-43" value="bukan bilangan&lt;div&gt;prima&lt;/div&gt;" style="shape=parallelogram;perimeter=parallelogramPerimeter;whiteSpace=wrap;html=1;fixedSize=1;fillColor=#6666FF;strokeWidth=2;" vertex="1" parent="1">
          <mxGeometry x="400" y="635" width="120" height="60" as="geometry" />
        </mxCell>
        <mxCell id="cXDRhL9zQuSr1UYdaiF8-53" style="edgeStyle=orthogonalEdgeStyle;rounded=0;orthogonalLoop=1;jettySize=auto;html=1;entryX=0;entryY=0.5;entryDx=0;entryDy=0;" edge="1" parent="1" source="cXDRhL9zQuSr1UYdaiF8-45" target="cXDRhL9zQuSr1UYdaiF8-39">
          <mxGeometry relative="1" as="geometry">
            <Array as="points">
              <mxPoint x="160" y="545" />
            </Array>
          </mxGeometry>
        </mxCell>
        <mxCell id="cXDRhL9zQuSr1UYdaiF8-45" value="i ++" style="whiteSpace=wrap;html=1;fillColor=#6666FF;strokeWidth=2;" vertex="1" parent="1">
          <mxGeometry x="100" y="635" width="120" height="60" as="geometry" />
        </mxCell>
        <mxCell id="cXDRhL9zQuSr1UYdaiF8-47" value="bilangan&amp;nbsp;&lt;div&gt;prima&lt;/div&gt;" style="shape=parallelogram;perimeter=parallelogramPerimeter;whiteSpace=wrap;html=1;fixedSize=1;fillColor=#6666FF;strokeWidth=2;" vertex="1" parent="1">
          <mxGeometry x="400" y="515" width="120" height="60" as="geometry" />
        </mxCell>
        <mxCell id="cXDRhL9zQuSr1UYdaiF8-55" value="END" style="strokeWidth=2;html=1;shape=mxgraph.flowchart.start_1;whiteSpace=wrap;fillColor=#6666FF;" vertex="1" parent="1">
          <mxGeometry x="410" y="400" width="100" height="60" as="geometry" />
        </mxCell>
        <mxCell id="cXDRhL9zQuSr1UYdaiF8-59" style="edgeStyle=orthogonalEdgeStyle;rounded=0;orthogonalLoop=1;jettySize=auto;html=1;entryX=1;entryY=0.5;entryDx=0;entryDy=0;entryPerimeter=0;" edge="1" parent="1" source="cXDRhL9zQuSr1UYdaiF8-47" target="cXDRhL9zQuSr1UYdaiF8-55">
          <mxGeometry relative="1" as="geometry">
            <Array as="points">
              <mxPoint x="560" y="545" />
              <mxPoint x="560" y="430" />
            </Array>
          </mxGeometry>
        </mxCell>
        <mxCell id="cXDRhL9zQuSr1UYdaiF8-61" style="edgeStyle=orthogonalEdgeStyle;rounded=0;orthogonalLoop=1;jettySize=auto;html=1;entryX=1;entryY=0.5;entryDx=0;entryDy=0;entryPerimeter=0;" edge="1" parent="1" source="cXDRhL9zQuSr1UYdaiF8-43" target="cXDRhL9zQuSr1UYdaiF8-55">
          <mxGeometry relative="1" as="geometry">
            <Array as="points">
              <mxPoint x="560" y="665" />
              <mxPoint x="560" y="430" />
            </Array>
          </mxGeometry>
        </mxCell>
        <mxCell id="cXDRhL9zQuSr1UYdaiF8-62" style="edgeStyle=orthogonalEdgeStyle;rounded=0;orthogonalLoop=1;jettySize=auto;html=1;entryX=1;entryY=0.5;entryDx=0;entryDy=0;entryPerimeter=0;" edge="1" parent="1" source="cXDRhL9zQuSr1UYdaiF8-35" target="cXDRhL9zQuSr1UYdaiF8-55">
          <mxGeometry relative="1" as="geometry">
            <Array as="points">
              <mxPoint x="560" y="300" />
              <mxPoint x="560" y="430" />
            </Array>
          </mxGeometry>
        </mxCell>
        <mxCell id="cXDRhL9zQuSr1UYdaiF8-63" value="True" style="text;html=1;align=center;verticalAlign=middle;resizable=0;points=[];autosize=1;strokeColor=none;fillColor=none;" vertex="1" parent="1">
          <mxGeometry x="330" y="310" width="50" height="30" as="geometry" />
        </mxCell>
        <mxCell id="cXDRhL9zQuSr1UYdaiF8-64" value="false" style="text;html=1;align=center;verticalAlign=middle;resizable=0;points=[];autosize=1;strokeColor=none;fillColor=none;" vertex="1" parent="1">
          <mxGeometry x="265" y="338" width="50" height="30" as="geometry" />
        </mxCell>
        <mxCell id="cXDRhL9zQuSr1UYdaiF8-65" value="true" style="text;html=1;align=center;verticalAlign=middle;resizable=0;points=[];autosize=1;strokeColor=none;fillColor=none;" vertex="1" parent="1">
          <mxGeometry x="310" y="590" width="40" height="30" as="geometry" />
        </mxCell>
        <mxCell id="cXDRhL9zQuSr1UYdaiF8-66" value="false" style="text;html=1;align=center;verticalAlign=middle;resizable=0;points=[];autosize=1;strokeColor=none;fillColor=none;" vertex="1" parent="1">
          <mxGeometry x="340" y="515" width="50" height="30" as="geometry" />
        </mxCell>
      </root>
    </mxGraphModel>
  </diagram>
</mxfile>
